<svg width="30.000000" height="30.000000" viewBox="0 0 30 30" fill="none" xmlns="http://www.w3.org/2000/svg" xmlns:xlink="http://www.w3.org/1999/xlink">
	<desc>
			Created with Pixso.
	</desc>
	<defs>
		<clipPath id="clip33_21">
			<rect width="30.000000" height="30.000000" fill="white" fill-opacity="0"/>
		</clipPath>
	</defs>
	<rect width="30.000000" height="30.000000" fill="#FFFFFF" fill-opacity="0"/>
	<g clip-path="url(#clip33_21)">
		<path d="M26.33 3.58L3.66 3.58C1.64 3.58 0 5.22 0 7.25L0 22.74C0 24.77 1.64 26.41 3.66 26.41L26.33 26.41C28.35 26.41 30 24.77 30 22.74L30 7.25C30 5.23 28.36 3.58 26.33 3.58ZM28.33 22.74C28.33 23.84 27.43 24.73 26.33 24.73L3.66 24.73C2.57 24.73 1.67 23.84 1.67 22.74L1.67 7.25C1.67 6.16 2.57 5.26 3.66 5.26L26.33 5.26C27.42 5.26 28.32 6.16 28.32 7.25L28.32 22.74L28.33 22.74Z" fill="#E2AB3F" fill-opacity="1.000000" fill-rule="nonzero"/>
		<path d="M18.91 14.8L26.25 8.22C26.59 7.91 26.62 7.38 26.31 7.04C26 6.7 25.48 6.66 25.13 6.97L15.01 16.06L13.04 14.29C13.03 14.29 13.02 14.28 13.02 14.27C12.98 14.23 12.94 14.19 12.89 14.16L4.86 6.97C4.51 6.66 3.98 6.69 3.67 7.04C3.36 7.38 3.39 7.91 3.74 8.22L11.16 14.86L3.77 21.78C3.43 22.1 3.42 22.62 3.73 22.97C3.9 23.14 4.12 23.23 4.35 23.23C4.55 23.23 4.76 23.16 4.92 23.01L12.42 15.99L14.46 17.81C14.62 17.95 14.82 18.02 15.02 18.02C15.22 18.02 15.42 17.94 15.58 17.8L17.67 15.93L25.13 23.01C25.29 23.17 25.5 23.24 25.71 23.24C25.93 23.24 26.15 23.16 26.31 22.98C26.63 22.65 26.62 22.11 26.28 21.8L18.91 14.8Z" fill="#E2AB3F" fill-opacity="1.000000" fill-rule="nonzero"/>
	</g>
</svg>
