<svg width="30.000000" height="30.000000" viewBox="0 0 30 30" fill="none" xmlns="http://www.w3.org/2000/svg" xmlns:xlink="http://www.w3.org/1999/xlink">
	<desc>
			Created with Pixso.
	</desc>
	<defs>
		<clipPath id="clip33_0">
			<rect width="30.000000" height="30.000000" fill="white" fill-opacity="0"/>
		</clipPath>
	</defs>
	<rect width="30.000000" height="30.000000" fill="#FFFFFF" fill-opacity="0"/>
	<g clip-path="url(#clip33_0)">
		<path d="M23.7 18.58C23.09 17.94 22.35 17.6 21.56 17.6C20.79 17.6 20.04 17.93 19.4 18.57L17.4 20.57C17.23 20.48 17.07 20.4 16.91 20.31C16.68 20.2 16.47 20.09 16.28 19.98C14.41 18.79 12.71 17.24 11.07 15.23C10.28 14.23 9.75 13.39 9.36 12.53C9.88 12.06 10.36 11.56 10.83 11.09C11.01 10.91 11.19 10.73 11.36 10.55C12.69 9.22 12.69 7.5 11.36 6.17L9.63 4.44C9.44 4.24 9.24 4.04 9.05 3.84C8.67 3.45 8.27 3.04 7.86 2.66C7.24 2.05 6.51 1.73 5.73 1.73C4.96 1.73 4.21 2.05 3.58 2.66C3.58 2.67 3.58 2.67 3.57 2.67L1.42 4.85C0.61 5.66 0.14 6.64 0.04 7.79C-0.11 9.64 0.44 11.36 0.85 12.49C1.88 15.25 3.41 17.82 5.7 20.57C8.47 23.88 11.81 26.49 15.62 28.34C17.08 29.03 19.02 29.84 21.19 29.98C21.32 29.99 21.46 30 21.59 30C23.05 30 24.28 29.47 25.24 28.42C25.25 28.41 25.26 28.41 25.27 28.39C25.6 27.99 25.98 27.63 26.38 27.25C26.65 26.99 26.93 26.72 27.2 26.43C27.83 25.78 28.16 25.02 28.16 24.24C28.16 23.45 27.82 22.7 27.18 22.07L23.7 18.58ZM25.97 25.25C25.72 25.51 25.47 25.75 25.2 26.02C24.79 26.41 24.37 26.82 23.98 27.29C23.34 27.97 22.58 28.29 21.6 28.29C21.5 28.29 21.4 28.29 21.3 28.29C19.42 28.17 17.68 27.43 16.37 26.8C12.78 25.07 9.63 22.61 7.02 19.48C4.86 16.88 3.42 14.48 2.46 11.89C1.87 10.32 1.66 9.09 1.75 7.93C1.82 7.19 2.1 6.57 2.63 6.05L4.79 3.89C5.1 3.6 5.42 3.44 5.75 3.44C6.15 3.44 6.47 3.68 6.67 3.88C6.68 3.89 6.68 3.9 6.69 3.9C7.08 4.26 7.44 4.64 7.83 5.04C8.03 5.24 8.23 5.44 8.43 5.65L10.16 7.38C10.83 8.05 10.83 8.67 10.16 9.34C9.98 9.52 9.8 9.71 9.62 9.89C9.08 10.43 8.58 10.94 8.03 11.43C8.01 11.44 8 11.45 8 11.46C7.45 12.01 7.55 12.54 7.67 12.9C7.67 12.92 7.68 12.94 7.68 12.96C8.13 14.05 8.77 15.07 9.73 16.29L9.74 16.3C11.48 18.45 13.33 20.13 15.36 21.42C15.62 21.58 15.88 21.71 16.14 21.84C16.37 21.95 16.58 22.06 16.76 22.18C16.79 22.19 16.82 22.21 16.84 22.22C17.06 22.33 17.26 22.38 17.47 22.38C17.99 22.38 18.32 22.05 18.43 21.94L20.6 19.78C20.81 19.56 21.15 19.3 21.55 19.3C21.94 19.3 22.27 19.55 22.46 19.76C22.47 19.77 22.47 19.77 22.48 19.78L25.96 23.26C26.62 23.91 26.62 24.58 25.97 25.25Z" fill="#E2AB3F" fill-opacity="1.000000" fill-rule="nonzero"/>
		<path d="M16.21 7.13C17.87 7.41 19.37 8.19 20.58 9.4C21.78 10.6 22.56 12.11 22.84 13.77C22.91 14.18 23.27 14.48 23.69 14.48C23.74 14.48 23.78 14.47 23.83 14.46C24.3 14.39 24.61 13.94 24.53 13.48C24.19 11.47 23.24 9.64 21.79 8.19C20.34 6.74 18.51 5.79 16.5 5.45C16.04 5.37 15.6 5.68 15.52 6.14C15.43 6.61 15.74 7.06 16.21 7.13Z" fill="#E2AB3F" fill-opacity="1.000000" fill-rule="nonzero"/>
		<path d="M29.96 13.23C29.4 9.92 27.84 6.92 25.45 4.52C23.05 2.13 20.04 0.57 16.74 0.01C16.28 -0.07 15.84 0.24 15.76 0.7C15.68 1.17 15.99 1.61 16.46 1.69C19.41 2.19 22.1 3.59 24.24 5.73C26.38 7.87 27.78 10.56 28.28 13.51C28.35 13.93 28.71 14.22 29.12 14.22C29.17 14.22 29.21 14.21 29.26 14.2C29.73 14.13 30.04 13.69 29.96 13.23Z" fill="#E2AB3F" fill-opacity="1.000000" fill-rule="nonzero"/>
	</g>
</svg>
